<?xml version="1.0" encoding="UTF-8" standalone="no"?>
<!-- Created with Inkscape (http://www.inkscape.org/) -->

<svg
   width="160mm"
   height="160mm"
   viewBox="0 0 160 160"
   version="1.1"
   id="svg1"
   xml:space="preserve"
   inkscape:version="1.4 (e7c3feb, 2024-10-09)"
   sodipodi:docname="awa.svg"
   xmlns:inkscape="http://www.inkscape.org/namespaces/inkscape"
   xmlns:sodipodi="http://sodipodi.sourceforge.net/DTD/sodipodi-0.dtd"
   xmlns="http://www.w3.org/2000/svg"
   xmlns:svg="http://www.w3.org/2000/svg"><sodipodi:namedview
     id="namedview1"
     pagecolor="#ffffff"
     bordercolor="#000000"
     borderopacity="0.25"
     inkscape:showpageshadow="2"
     inkscape:pageopacity="0.0"
     inkscape:pagecheckerboard="0"
     inkscape:deskcolor="#d1d1d1"
     inkscape:document-units="mm"
     inkscape:zoom="0.57701421"
     inkscape:cx="302.4189"
     inkscape:cy="234.82957"
     inkscape:window-width="1209"
     inkscape:window-height="279"
     inkscape:window-x="0"
     inkscape:window-y="0"
     inkscape:window-maximized="0"
     inkscape:current-layer="layer1" /><defs
     id="defs1"><inkscape:path-effect
       effect="spiro"
       id="path-effect1"
       is_visible="true"
       lpeversion="1" /></defs><g
     inkscape:label="图层 1"
     inkscape:groupmode="layer"
     id="layer1"><path
       style="fill:#C0D9D9;stroke-width:0.264583"
       d="m 82.645886,93.589514 c -0.82049,-0.165379 -1.628885,-0.449565 -2.309355,-0.93692 -0.557917,-0.399582 -1.028523,-0.94662 -1.241221,-1.599075 -0.196869,-0.603899 -0.162449,-1.268409 0.02407,-1.875585 0.186519,-0.607175 0.518499,-1.161435 0.906072,-1.664663 0.572962,-0.743938 1.269894,-1.385858 2.016341,-1.955547 0.660883,-0.504387 1.361909,-0.954187 2.077138,-1.378003 0.453941,-0.268987 0.914235,-0.527902 1.388134,-0.759928 0.706879,-0.346095 1.442303,-0.631486 2.188591,-0.881515 1.864898,-0.624797 3.805619,-1.030577 5.767704,-1.166364 1.715178,-0.1187 3.466508,-0.02681 5.100357,0.508406 1.869233,0.612328 3.556633,1.823892 4.637143,3.467512 0.61099,0.929408 1.02515,1.987259 1.20997,3.084048 0.22794,1.352624 0.10871,2.739167 -0.0781,4.098081 -0.077,0.559877 -0.1653,1.118191 -0.26493,1.674482 0.88883,-0.0579 1.78195,-0.05001 2.66962,0.02358 1.12178,0.093 2.23482,0.291038 3.31983,0.590679 l 0.6586,-1.24628 0.59781,-1.114561 0.67887,-1.296945 2.74587,-5.258699 c 1.13928,-1.992575 2.33556,-3.952567 3.58686,-5.876772 1.58929,-2.443946 3.27125,-4.83513 5.18778,-7.031865 0.75312,-0.86323 1.57036,-1.716506 2.61415,-2.188591 0.8183,-0.370103 1.7442,-0.483622 2.63441,-0.364765 0.4848,0.06473 0.96397,0.198222 1.39412,0.43103 0.70015,0.37894 1.24165,1.006318 1.63302,1.699591 0.39137,0.693272 0.64417,1.454912 0.87797,2.215922 0.4978,1.620306 0.92082,3.264154 1.24621,4.927679 0.45683,2.335478 0.7203,4.703749 0.99526,7.067549 0.44034,3.785569 0.91145,7.568407 1.2431,11.365043 0.11807,1.35163 0.21844,2.704802 0.30109,4.059062 0.10361,1.13025 0.19144,2.26194 0.26344,3.39464 0.1022,1.60777 0.17277,3.22021 0.40182,4.81486 0.0999,0.69572 0.22988,1.3869 0.37808,2.07396 0.25643,1.18882 0.56759,2.36583 0.93218,3.52606 l 2.74821,14.07417 c 1.05898,6.39101 2.1449,12.77755 3.2577,19.15941 1.55974,8.94499 3.17296,17.88407 5.16114,26.74369 1.41541,6.30728 3.02214,12.57786 5.065,18.71071 1.93919,5.82163 4.26987,11.51281 6.97107,17.02238 H 50.418659 c 3.594381,-3.80833 6.879957,-7.90804 9.813891,-12.24566 3.000715,-4.43636 5.638151,-9.13124 7.667026,-14.08797 2.028739,-4.9564 3.441901,-10.16152 4.24288,-15.45682 0.817312,-5.40328 0.997997,-10.87912 1.316612,-16.33457 0.219793,-3.76337 0.505819,-7.52351 0.638636,-11.29095 0.08154,-2.31278 0.105288,-4.62759 0.07123,-6.94156 -1.239534,-0.18209 -2.471071,-0.41861 -3.689872,-0.70866 -2.700507,-0.64266 -5.341701,-1.55015 -7.837433,-2.7655 -2.130786,-1.03763 -4.153238,-2.29886 -6.015848,-3.76433 -1.723826,-1.35628 -3.308536,-2.88522 -4.767726,-4.52285 -0.817767,-0.91777 -1.601726,-1.87745 -2.189822,-2.95689 -0.588097,-1.07943 -0.975242,-2.29101 -0.951811,-3.52003 0.0068,-0.35883 0.04894,-0.71913 0.156377,-1.06156 0.107435,-0.34244 0.282251,-0.66726 0.532625,-0.92439 0.446014,-0.45806 1.096165,-0.66678 1.733228,-0.72057 0.637064,-0.0538 1.276458,0.0303 1.914424,0.0721 2.496735,0.1634 5.002167,-0.32656 7.371819,-1.12976 2.369651,-0.80321 4.620955,-1.91521 6.85909,-3.03375 2.927701,-1.46316 5.84685,-2.94338 8.77389,-4.40787 2.886562,-1.44423 5.783341,-2.87453 8.57258,-4.49878 2.461425,-1.433356 4.841095,-3.018752 7.410639,-4.247802 3.303972,-1.580338 6.898298,-2.551153 10.548626,-2.849147 0.10508,-0.490869 0.1294,-0.998928 0.0717,-1.49759 -0.12553,-1.084805 -0.63736,-2.100872 -1.3302,-2.944987 -0.69285,-0.844114 -1.561457,-1.52812 -2.471308,-2.132049 -1.771506,-1.175866 -3.721632,-2.070807 -5.741699,-2.734299 -1.762799,-0.578992 -3.591626,-0.985287 -5.445208,-1.068519 -0.725045,-0.03256 -1.455287,-0.01535 -2.1702,0.109745 -0.74344,0.130091 -1.481735,0.38551 -2.066743,0.862366 -0.605008,0.493159 -1.015524,1.206303 -1.190611,1.966951 -0.175086,0.760647 -0.121747,1.565353 0.100265,2.313652 0.319009,1.07523 0.989345,2.043122 1.883711,2.719876 0.894366,0.676753 2.008019,1.058777 3.129477,1.073527 -0.909093,0.465622 -1.923011,0.725122 -2.944015,0.753484 -0.593156,0.01648 -1.187316,-0.04406 -1.769003,-0.161304 z"
       id="path1"
       inkscape:path-effect="#path-effect1"
       inkscape:original-d="m 82.645886,93.589514 c -0.455323,-0.06153 -1.740768,-0.872967 -2.309355,-0.93692 -0.568587,-0.06395 -2.305902,-1.425614 -1.241221,-1.599075 0.671076,-0.109333 -0.359665,-1.943798 0.930142,-3.540248 0.331558,-0.410373 1.099439,-1.173474 2.016341,-1.955547 0.553903,-0.469469 1.495743,-1.026873 2.077138,-1.378003 0.581395,-0.35113 0.932177,-0.513374 1.388134,-0.759928 0.455956,-0.246555 1.452305,-0.580922 2.188591,-0.881515 2.317783,-0.851559 3.808679,-1.068154 5.767704,-1.166364 1.706402,-0.08555 6.418122,1.66914 5.100357,0.508406 -0.302805,-0.266721 3.660973,2.264659 4.637143,3.467512 0.48808,0.601426 0.93878,1.468508 1.20997,3.084048 0.2712,1.61554 -0.34305,4.153361 -0.0781,4.098081 0.33453,-0.06966 -0.21005,1.121098 -0.26493,1.674482 0,0 0.91591,-0.560984 2.66962,0.02358 0.49648,0.165494 3.31983,0.590679 3.31983,0.590679 0.12682,-0.343103 0.47219,-0.935272 0.6586,-1.24628 0.20941,-0.2398 0.86463,-1.567141 0.59781,-1.114561 0.25669,-0.442446 0.90854,-1.725879 0.67887,-1.296945 0.22967,-0.40867 3.66117,-7.011598 2.74587,-5.258699 0.9153,-1.732635 2.398,-3.917847 3.58686,-5.876772 1.18887,-1.958924 3.45177,-4.681156 5.18778,-7.031865 1.73601,-2.350709 1.74276,-1.459061 2.61415,-2.188591 0.87138,-0.729531 1.75628,-0.243176 2.63441,-0.364765 2.7302,-0.378032 1.0256,-0.70612 1.39412,0.43103 0.261,0.805376 1.66215,2.313115 2.51099,3.915513 0.84884,1.602398 1.07372,3.514396 1.24621,4.927679 0.34498,2.826569 0.70001,4.706847 0.99526,7.067549 0.47295,3.781481 0.47124,1.771945 1.2431,11.365043 0.0946,1.175353 0.49698,5.605932 0.30109,4.059062 0.19589,1.52661 0.18914,2.21253 0.26344,3.39464 0.0743,1.18211 0.27348,3.46388 0.40182,4.81486 0.12835,1.35098 0.29702,1.35119 0.37808,2.07396 0.0811,0.72278 1.378,5.09996 0.93218,3.52606 1.26768,4.80059 1.55818,9.15374 2.74821,14.07417 0.60594,6.5305 1.70379,12.80924 3.2577,19.15941 5.50884,22.84163 -3.20741,-13.787 5.16114,26.74369 1.06728,5.18778 3.71402,12.44215 5.065,18.71071 1.35098,6.26856 6.97107,17.02238 6.97107,17.02238 H 50.418659 c 0,0 -31.18534,112.21898 9.813891,-12.24566 1.528858,-4.64128 4.965062,-9.8729 7.667026,-14.08797 2.701965,-4.21506 2.675742,-9.99885 4.24288,-15.45682 1.56714,-5.45797 0.992376,-10.76853 1.316612,-16.33457 0.324237,-5.56605 0.368441,-7.40012 0.638636,-11.29095 0.270198,-3.89082 0.07123,-6.94156 0.07123,-6.94156 0,0 -2.825243,-0.58708 -3.689872,-0.70866 -0.864627,-0.12159 -5.864999,-2.31967 -7.837433,-2.7655 -1.972434,-0.44582 -4.034742,-1.41858 -6.015848,-3.76433 -3.009696,-3.56365 -3.106019,-2.59095 -4.767726,-4.52285 -1.661714,-1.93191 -1.966277,-4.19376 -3.141633,-6.47692 -1.175355,-2.28316 0.459336,-1.32397 0.689002,-1.98595 0.229666,-0.66198 2.458789,-0.44582 3.647652,-0.64847 1.188865,-0.20265 10.448158,-2.93412 14.230909,-4.16351 3.78275,-1.2294 5.031668,-2.89477 8.77389,-4.40787 3.742221,-1.5131 15.632731,-10.927257 8.57258,-4.49878 -2.483863,2.26162 4.195301,-2.707684 7.410639,-4.247802 3.215339,-1.540121 10.548626,-2.849147 10.548626,-2.849147 0,0 0.2574,-1.004958 0.0717,-1.49759 -0.58885,-1.562319 -5.235002,-6.274805 -3.801508,-5.077036 1.828938,1.528182 -1.81382,0.355656 -5.741699,-2.734299 -1.583092,-1.245375 -3.62753,-1.209228 -5.445208,-1.068519 -0.908839,0.07035 -1.616205,0.05718 -2.1702,0.109745 -0.553994,0.05256 -1.599438,0.471769 -2.066743,0.862366 -1.249552,1.044436 -1.901974,2.657187 -1.090346,4.280603 0.819711,1.639584 5.013188,3.793403 5.013188,3.793403 0,0 -2.577518,0.803011 -2.944015,0.753484 -0.366497,-0.04953 -1.31368,-0.09977 -1.769003,-0.161304 z"
       sodipodi:nodetypes="zsssszssasssscscscccsssssssascssccssssccssssscssssssssssscsssssssczz"
       transform="translate(-27.281892,-63.235048)" /></g></svg>
