<?xml version="1.0" encoding="UTF-8" standalone="no"?>
<!-- Created with Inkscape (http://www.inkscape.org/) -->

<svg
   version="1.1"
   id="svg1"
   width="360"
   height="360"
   viewBox="0 0 360 360"
   sodipodi:docname="huitu.svg"
   inkscape:version="1.4 (e7c3feb, 2024-10-09)"
   xmlns:inkscape="http://www.inkscape.org/namespaces/inkscape"
   xmlns:sodipodi="http://sodipodi.sourceforge.net/DTD/sodipodi-0.dtd"
   xmlns="http://www.w3.org/2000/svg"
   xmlns:svg="http://www.w3.org/2000/svg">
  <defs
     id="defs1">
    <inkscape:path-effect
       effect="spiro"
       id="path-effect24"
       is_visible="true"
       lpeversion="1" />
    <inkscape:path-effect
       effect="spiro"
       id="path-effect23"
       is_visible="true"
       lpeversion="1" />
    <inkscape:path-effect
       effect="spiro"
       id="path-effect22"
       is_visible="true"
       lpeversion="1" />
    <inkscape:path-effect
       effect="spiro"
       id="path-effect21"
       is_visible="true"
       lpeversion="1" />
    <inkscape:path-effect
       effect="spiro"
       id="path-effect20"
       is_visible="true"
       lpeversion="1" />
    <inkscape:path-effect
       effect="spiro"
       id="path-effect19"
       is_visible="true"
       lpeversion="1" />
    <inkscape:path-effect
       effect="spiro"
       id="path-effect15"
       is_visible="true"
       lpeversion="1" />
    <inkscape:path-effect
       effect="spiro"
       id="path-effect14"
       is_visible="true"
       lpeversion="1" />
    <inkscape:path-effect
       effect="spiro"
       id="path-effect13"
       is_visible="true"
       lpeversion="1" />
    <inkscape:path-effect
       effect="spiro"
       id="path-effect12"
       is_visible="true"
       lpeversion="1" />
    <inkscape:path-effect
       effect="spiro"
       id="path-effect11"
       is_visible="true"
       lpeversion="1" />
    <inkscape:path-effect
       effect="spiro"
       id="path-effect10"
       is_visible="true"
       lpeversion="1" />
    <inkscape:path-effect
       effect="spiro"
       id="path-effect9"
       is_visible="true"
       lpeversion="1" />
    <inkscape:path-effect
       effect="spiro"
       id="path-effect8"
       is_visible="true"
       lpeversion="1" />
    <inkscape:path-effect
       effect="spiro"
       id="path-effect7"
       is_visible="true"
       lpeversion="1" />
    <inkscape:path-effect
       effect="spiro"
       id="path-effect6"
       is_visible="true"
       lpeversion="1" />
    <inkscape:path-effect
       effect="spiro"
       id="path-effect5"
       is_visible="true"
       lpeversion="1" />
    <inkscape:path-effect
       effect="spiro"
       id="path-effect4"
       is_visible="true"
       lpeversion="1" />
    <inkscape:path-effect
       effect="spiro"
       id="path-effect3"
       is_visible="true"
       lpeversion="1" />
    <inkscape:path-effect
       effect="spiro"
       id="path-effect2"
       is_visible="true"
       lpeversion="1" />
    <inkscape:path-effect
       effect="spiro"
       id="path-effect1"
       is_visible="true"
       lpeversion="1" />
  </defs>
  <sodipodi:namedview
     id="namedview1"
     pagecolor="#ffffff"
     bordercolor="#000000"
     borderopacity="0.25"
     inkscape:showpageshadow="2"
     inkscape:pageopacity="0.0"
     inkscape:pagecheckerboard="0"
     inkscape:deskcolor="#d1d1d1"
     showguides="false"
     inkscape:zoom="1.174359"
     inkscape:cx="304.84715"
     inkscape:cy="267.80567"
     inkscape:window-width="1209"
     inkscape:window-height="279"
     inkscape:window-x="0"
     inkscape:window-y="0"
     inkscape:window-maximized="0"
     inkscape:current-layer="g1" />
  <g
     inkscape:groupmode="layer"
     inkscape:label="Image"
     id="g1">
    <path
       style="fill:#ffffff;stroke:#3480d5;stroke-width:5;stroke-dasharray:none;stroke-opacity:1;fill-opacity:1"
       d="m 121.49111,103.22421 c 4.26094,-9.374998 9.37375,-18.362622 15.25484,-26.815965 5.04739,-7.254997 10.65264,-14.107964 16.48637,-20.747142 2.777,-3.160407 5.65418,-6.314425 9.20779,-8.566475 1.7768,-1.126026 3.71533,-2.015614 5.76167,-2.5029 2.04634,-0.487286 4.20364,-0.564642 6.2551,-0.09937 2.2695,0.514723 4.35535,1.677608 6.17602,3.126992 1.82067,1.449383 3.39415,3.183073 4.89385,4.962528 9.64531,11.444563 16.56404,25.171706 20.02604,39.732768 6.39881,0.547628 12.70838,2.125065 18.61206,4.653149 7.91212,3.388135 15.08425,8.492235 20.87756,14.857655 14.03338,-5.88823 29.38033,-8.62105 44.58368,-7.93899 2.80545,0.12586 5.62503,0.36955 8.33233,1.11581 2.7073,0.74627 5.31455,2.02193 7.31451,3.99336 2.85786,2.81709 4.2639,6.86081 4.55119,10.86341 0.28728,4.00259 -0.44955,8.00626 -1.35797,11.91498 -5.16618,22.22879 -16.10574,43.08986 -31.45332,59.97952 16.77471,21.26 23.10151,50.38755 16.65802,76.69078 -3.47155,14.17133 -10.40643,27.36479 -19.26582,38.95744 -12.19185,15.95323 -28.59509,29.28113 -47.89847,34.80621 -22.8294,6.53431 -47.32461,1.71046 -70.03822,-5.21561 C 135.50639,330.60043 114.9311,322.35892 96.648472,310.27565 86.308819,303.44201 76.768433,295.41911 68.122271,286.53931 56.245924,274.34204 45.914044,260.2619 40.341157,244.17576 c -6.51539,-18.80668 -6.118713,-39.86023 0.745088,-58.54257 3.285962,-8.94394 7.976769,-17.31172 13.135828,-25.3227 5.221677,-8.10821 10.956215,-15.9101 17.50628,-22.98863 5.615391,-6.06845 11.804918,-11.57908 18.139067,-16.89295 6.99244,-5.86613 14.32367,-11.59206 22.85365,-14.83939 2.83444,-1.07906 5.77741,-1.87279 8.77004,-2.36531 z"
       id="path1"
       inkscape:path-effect="#path-effect1"
       inkscape:original-d="m 121.49111,103.22421 c 0,0 9.49633,-18.295652 15.25484,-26.815965 4.9463,-7.318557 9.68424,-15.111698 16.48637,-20.747142 6.15628,-5.100374 13.25145,-11.754535 21.22456,-11.168745 4.55793,0.334876 8.11418,4.603718 11.06987,8.08952 9.59189,11.312217 20.02604,39.732768 20.02604,39.732768 0,0 12.10104,1.308621 18.61206,4.653149 5.18469,2.663226 13.05217,8.994725 20.87756,14.857655 0,0 34.11838,-10.26403 44.58368,-7.93899 5.55439,1.234 12.1239,0.90299 15.64684,5.10917 4.92298,5.87774 4.50432,15.22428 3.19322,22.77839 -3.8605,22.2429 -31.45332,59.97952 -31.45332,59.97952 16.98469,22.06444 19.85949,50.72773 16.65802,76.69078 -1.77294,14.37808 -9.92384,27.88494 -19.26582,38.95744 -12.7271,15.08467 -28.70341,29.61514 -47.89847,34.80621 -21.93254,5.93139 -83.84497,2.71393 -70.03822,-5.21561 C 194.77977,314.98918 115.18555,321.82068 96.648472,310.27565 86.148377,303.73611 76.358644,295.76859 68.122271,286.53931 56.878516,273.94009 45.070355,260.38677 40.341157,244.17576 c -5.465466,-18.73483 -4.000431,-39.61256 0.745088,-58.54257 2.312239,-9.22359 8.047141,-17.28988 13.135828,-25.3227 5.154412,-8.13658 11.040928,-15.84923 17.50628,-22.98863 5.546098,-6.12431 10.35199,-14.29648 18.139067,-16.89295 2.354324,-0.78501 14.59724,-11.17117 22.85365,-14.83939 2.767,-1.22935 8.77004,-2.36531 8.77004,-2.36531 z"
       sodipodi:nodetypes="caaaacscsaacaassaaaaaassc"
       transform="translate(1.7030568,-16.179039)" />
    <path
       style="fill:#2bbed9;fill-opacity:1;stroke:#3480d5;stroke-width:3.6;stroke-linecap:round;stroke-linejoin:round;stroke-dasharray:none;stroke-opacity:1"
       d="m 58.158686,154.75662 c 4.484561,6.96077 9.393709,13.64795 14.69108,20.01202 6.750989,8.11039 14.132289,15.69494 22.042429,22.6795 7.173465,6.33408 14.780695,12.17434 22.725165,17.50956 5.85869,3.93449 11.91472,7.60222 18.30786,10.59089 5.36821,2.50954 10.95158,4.52999 16.57528,6.39802 0.25793,0.0857 0.51596,0.17104 0.77461,0.25453 4.48434,1.44751 9.13416,2.32538 13.80081,2.97879 5.60606,0.78494 11.25675,1.25097 16.91566,1.39508 -0.99832,-3.19435 -1.81647,-6.44499 -2.44927,-9.73133 -0.58563,-3.04138 -1.01254,-6.11331 -1.27841,-9.19913 -7.8116,-1.81809 -15.4632,-4.32311 -22.83758,-7.4767 -5.15185,-2.20315 -10.16409,-4.72003 -15.11464,-7.34443 -6.13421,-3.25188 -12.1844,-6.67453 -17.98853,-10.48444 -6.50578,-4.27048 -12.68968,-9.01951 -18.62719,-14.05022 C 98.980024,172.59851 92.565272,166.53517 86.749454,159.92767 80.711589,153.0679 75.33,145.63075 70.702035,137.75076 Z"
       id="path3"
       inkscape:path-effect="#path-effect3"
       inkscape:original-d="m 58.158686,154.75662 c 4.328602,6.3155 10.256036,13.59008 14.69108,20.01202 4.435044,6.42194 14.768957,15.12219 22.042429,22.6795 7.273475,7.55731 14.600165,12.15203 22.725165,17.50956 8.125,5.35753 12.66648,6.61709 18.30786,10.59089 5.39795,3.80233 10.86089,4.56736 16.57528,6.39802 0.25769,0.0825 0.51589,0.16727 0.77461,0.25453 5.99618,2.02237 6.56282,2.2337 13.80081,2.97879 7.23799,0.74508 14.29011,1.50152 16.91566,1.39508 0,0 -1.8099,-6.44807 -2.44927,-9.73133 -0.59175,-3.03877 -1.27841,-9.19913 -1.27841,-9.19913 2.47859,14.26932 -29.93189,-10.48503 -22.83758,-7.4767 24.66556,10.45939 -9.29586,-3.65447 -15.11464,-7.34443 -5.81878,-3.68996 -32.67797,-21.69802 -17.98853,-10.48444 8.69472,6.63734 -12.52457,-8.37336 -18.62719,-14.05022 C 99.593341,172.6119 91.716703,167.0947 86.749454,159.92767 81.782206,152.76064 75.669284,144.91779 70.702035,137.75076 Z"
       sodipodi:nodetypes="cssssssscacssssscc"
       transform="translate(1.7030568,-16.179039)" />
    <path
       style="fill:#2bbed9;fill-opacity:1;stroke:#3480d5;stroke-width:3.6;stroke-linecap:round;stroke-dasharray:none;stroke-opacity:1"
       d="m 231.18996,218.25737 c -3.39955,-2.4443 -7.01976,-4.58158 -10.8022,-6.37733 -4.03635,-1.91631 -8.25497,-3.44275 -12.56918,-4.60548 -6.51733,-1.75649 -13.27242,-2.68319 -20.02082,-2.54159 -0.83622,0.0175 -1.67549,0.0518 -2.49834,0.20174 -0.82286,0.14996 -1.63302,0.41977 -2.33261,0.87819 -1.32899,0.87084 -2.1555,2.36169 -2.53382,3.90488 -0.37833,1.5432 -0.35524,3.15349 -0.30018,4.74143 0.11603,3.34627 0.36458,6.69139 0.86974,10.00135 0.91759,6.01231 2.68623,11.89735 5.2762,17.40025 0.47487,1.00896 0.97963,2.00926 1.62078,2.92164 0.64115,0.91238 1.4258,1.73869 2.37715,2.32044 1.13031,0.69119 2.45755,1.01283 3.77987,1.09535 1.32232,0.0825 2.64805,-0.0641 3.95941,-0.25295 5.31224,-0.76507 10.52342,-2.23132 15.45314,-4.35338 3.09796,-1.33356 6.07849,-2.92152 9.09157,-4.43714 2.25378,-1.13369 4.52752,-2.22772 6.81979,-3.28141"
       id="path4"
       inkscape:path-effect="#path-effect4"
       inkscape:original-d="m 231.18996,218.25737 c -4.64793,-2.62555 -7.02311,-4.58774 -10.8022,-6.37733 -4.0328,-1.90973 -8.23363,-3.55026 -12.56918,-4.60548 -6.53635,-1.59086 -13.30103,-2.85649 -20.02082,-2.54159 -1.64825,0.0772 -3.60909,-0.029 -4.83095,1.07993 -2.24589,2.03835 -2.48599,5.63337 -2.834,8.64631 -0.38397,3.32426 0.23584,6.71557 0.86974,10.00135 1.14809,5.95113 1.96947,11.473 5.2762,17.40025 0.59436,1.06538 2.08416,4.16195 3.99793,5.24208 2.2599,1.27549 5.15324,1.05777 7.73928,0.8424 5.33308,-0.44414 10.45283,-2.44655 15.45314,-4.35338 3.15086,-1.20156 6.05693,-2.96655 9.09157,-4.43714 2.2702,-1.10014 4.72645,-2.25248 6.81979,-3.28141"
       sodipodi:nodetypes="caaaaaasaaaac"
       transform="translate(1.7030568,-16.179039)" />
    <path
       style="fill:#2bbed9;fill-opacity:1;stroke:#3480d5;stroke-width:3.6;stroke-linecap:round;stroke-dasharray:none;stroke-opacity:1"
       d="m 245.66593,217.67195 c 5.5616,-3.89724 11.24197,-7.62499 17.03057,-11.17632 1.82682,-1.12076 3.68727,-2.23437 5.73442,-2.86884 2.04715,-0.63447 4.32804,-0.75342 6.29342,0.10137 1.64082,0.71364 2.94917,2.05649 3.88874,3.57924 0.93957,1.52275 1.5407,3.22745 2.07196,4.93605 2.6274,8.45009 3.70594,17.33538 3.72544,26.1845 0.004,1.96771 -0.0452,3.95322 -0.49942,5.86779 -0.45423,1.91457 -1.34388,3.77242 -2.80025,5.09563 -1.17157,1.06444 -2.66594,1.74003 -4.21639,2.05894 -1.55045,0.31891 -3.15757,0.29312 -4.72466,0.0699 -2.82132,-0.40191 -5.5184,-1.4319 -8.08952,-2.66102 -3.57765,-1.7103 -6.95474,-3.81466 -10.21833,-6.06714 -3.45895,-2.38732 -6.79956,-4.94608 -10.00547,-7.66375"
       id="path5"
       inkscape:path-effect="#path-effect5"
       inkscape:original-d="m 245.66593,217.67195 c 3.9738,-2.37718 10.78564,-8.51054 17.03057,-11.17632 3.78373,-1.61517 8.18771,-4.2435 12.02784,-2.76747 3.23407,1.24308 4.68835,5.29262 5.9607,8.51529 3.2375,8.2001 4.39051,17.39356 3.72544,26.1845 -0.2879,3.80553 -0.52317,8.34504 -3.29967,10.96342 -2.22888,2.10194 -5.88009,2.25754 -8.94105,2.12882 -2.83614,-0.11927 -5.50552,-1.48592 -8.08952,-2.66102 -3.60591,-1.63982 -6.9372,-3.84772 -10.21833,-6.06714 -3.47978,-2.35379 -4.11903,1.00522 -10.00547,-7.66375"
       sodipodi:nodetypes="caaaaaaaac"
       transform="translate(1.7030568,-16.179039)" />
    <path
       style="fill:none;stroke:#3480d5;stroke-width:3.6;stroke-linecap:round;stroke-dasharray:none;stroke-opacity:1"
       d="m 249.64723,226.9528 22.84942,3.52546"
       id="path6"
       inkscape:path-effect="#path-effect6"
       inkscape:original-d="m 249.64723,226.9528 c 7.06059,0.95796 15.57594,2.35461 22.84942,3.52546"
       sodipodi:nodetypes="cc"
       transform="translate(1.7030568,-16.179039)" />
    <path
       style="fill:none;stroke:#3480d5;stroke-width:3.6;stroke-linecap:round;stroke-dasharray:none;stroke-opacity:1"
       d="m 225.86366,226.09905 -22.53987,0.35917"
       id="path7"
       inkscape:path-effect="#path-effect7"
       inkscape:original-d="m 225.86366,226.09905 c -6.35098,-0.31932 -16.08244,0.67849 -22.53987,0.35917"
       sodipodi:nodetypes="cc"
       transform="translate(1.7030568,-16.179039)" />
    <path
       style="fill:none;stroke:#3480d5;stroke-width:3.6;stroke-dasharray:none;stroke-opacity:1"
       d="m 231.13674,220.01365 c -1.86086,1.70796 -3.23884,3.99582 -3.619,6.4929 -0.21832,1.43401 -0.10474,2.92295 0.37268,4.29266 0.47742,1.36972 1.32247,2.61576 2.44801,3.53075 1.3214,1.07421 3.00178,1.66973 4.70065,1.78756 1.69886,0.11782 3.41353,-0.22783 4.98549,-0.8828 2.94159,-1.22563 5.38771,-3.53838 6.91866,-6.33325 0.57204,-1.04431 1.02449,-2.16273 1.24017,-3.33376 0.21567,-1.17103 0.18824,-2.39796 -0.17576,-3.53168 -0.38105,-1.18683 -1.12428,-2.24405 -2.06342,-3.06368 -0.93913,-0.81962 -2.06912,-1.40679 -3.25863,-1.77939 -1.97993,-0.62019 -4.13314,-0.64854 -6.14393,-0.1372 -2.01079,0.51133 -3.87637,1.55494 -5.40492,2.95789 z"
       id="path8"
       inkscape:path-effect="#path-effect8"
       inkscape:original-d="m 231.13674,220.01365 c -1.98809,1.69314 -3.01579,4.47264 -3.619,6.4929 -2.04032,6.83343 0.57682,5.91756 2.82069,7.82341 2.41056,2.04745 6.61215,1.9373 9.68614,0.90476 2.96382,-0.99554 5.44259,-3.57707 6.91866,-6.33325 1.09332,-2.04149 1.83525,-4.68168 1.06441,-6.86544 -0.7984,-2.26182 -2.82629,-1.04534 -5.32205,-4.84307 -0.59101,-0.89932 -10.84811,2.2239 -11.54885,2.82069 z"
       sodipodi:nodetypes="sssaaass"
       transform="translate(1.7030568,-16.179039)" />
    <path
       style="fill:#c7bca0;fill-opacity:1;stroke:#3480d5;stroke-width:3.6;stroke-linejoin:round;stroke-dasharray:none;stroke-opacity:1"
       d="m 129.17267,144.51955 c 0.92513,1.73846 2.13281,3.32617 3.5612,4.68183 1.50292,1.4264 3.2498,2.5951 5.14179,3.43997 1.01921,-1.12908 1.56003,-2.67668 1.46592,-4.19482 -0.0918,-1.48051 -0.80235,-2.935 -1.98587,-3.82921 -0.69457,-0.52478 -1.52901,-0.84887 -2.38645,-0.99925 -0.85744,-0.15039 -1.73853,-0.13166 -2.60115,-0.0146 -1.10182,0.14949 -2.18178,0.45911 -3.19544,0.9161 z"
       id="path9"
       inkscape:path-effect="#path-effect9"
       inkscape:original-d="m 129.17267,144.51955 c 0,0 2.13333,3.33803 3.5612,4.68183 1.50169,1.41327 5.14179,3.43997 5.14179,3.43997 0,0 1.49142,-2.69198 1.46592,-4.19482 -0.025,-1.47329 -3.75439,-1.94936 -1.98587,-3.82921 1.2468,-1.32529 -3.29238,-1.08057 -4.9876,-1.01387 -1.1072,0.0436 -3.19544,0.9161 -3.19544,0.9161 z"
       sodipodi:nodetypes="cacssac"
       transform="translate(1.7030568,-16.179039)" />
    <path
       style="fill:none;stroke:#3480d5;stroke-width:3.2;stroke-linecap:round;stroke-dasharray:none;stroke-opacity:1"
       d="m 92.500915,128.53412 c 0.756248,-0.77227 1.636479,-1.42288 2.596649,-1.91926 0.875258,-0.45248 1.816609,-0.77687 2.784811,-0.95963"
       id="path19"
       inkscape:path-effect="#path-effect19"
       inkscape:original-d="m 92.500915,128.53412 c 0.953359,-0.67738 1.492759,-1.16661 2.596649,-1.91926 1.023175,-0.79176 1.635941,-0.71237 2.784811,-0.95963"
       sodipodi:nodetypes="csc"
       transform="translate(1.7030568,-16.179039)" />
    <path
       style="fill:none;stroke:#3480d5;stroke-width:3.2;stroke-linecap:round;stroke-dasharray:none;stroke-opacity:1"
       d="m 95.795104,132.74432 c 0.792074,-0.52462 1.695976,-0.87951 2.633402,-1.03391 1.001131,-0.1649 2.039334,-0.10048 3.012404,0.1869"
       id="path20"
       inkscape:path-effect="#path-effect20"
       inkscape:original-d="m 95.795104,132.74432 c 0.376326,0.0126 1.495455,-0.67894 2.633402,-1.03391 1.137947,-0.35497 2.560804,0.212 3.012404,0.1869"
       sodipodi:nodetypes="csc"
       transform="translate(1.7030568,-16.179039)" />
    <path
       style="fill:none;stroke:#3480d5;stroke-width:3.2;stroke-linecap:round;stroke-dasharray:none;stroke-opacity:1"
       d="m 168.74455,169.34667 c 1.64731,-0.23081 3.27043,-0.6338 4.8344,-1.20028 1.2954,-0.46921 2.55021,-1.05043 3.74583,-1.73506"
       id="path21"
       inkscape:path-effect="#path-effect21"
       inkscape:original-d="m 168.74455,169.34667 c 2.27251,-0.57598 3.48451,-0.71938 4.8344,-1.20028 1.34989,-0.48089 2.83767,-1.29928 3.74583,-1.73506"
       sodipodi:nodetypes="csc"
       transform="translate(1.7030568,-16.179039)" />
    <path
       style="fill:none;stroke:#3480d5;stroke-width:3.2;stroke-linecap:round;stroke-dasharray:none;stroke-opacity:1"
       d="m 181.86209,175.42645 4.70361,-1.7714"
       id="path22"
       inkscape:path-effect="#path-effect22"
       inkscape:original-d="m 181.86209,175.42645 c 4.58549,-0.18887 5.77897,-0.87492 4.70361,-1.7714"
       sodipodi:nodetypes="cc"
       transform="translate(1.7030568,-16.179039)" />
    <path
       style="fill:#4a4a4a;fill-opacity:1;stroke:#161616;stroke-width:3.2;stroke-linecap:round;stroke-dasharray:none;stroke-opacity:1"
       d="m 123.97721,124.69569 c -0.25898,0.42698 -0.48345,0.88365 -0.57415,1.37473 -0.0907,0.49107 -0.0369,1.02273 0.22822,1.44595 0.16416,0.26209 0.40344,0.47361 0.6748,0.62195 0.27136,0.14834 0.57409,0.23493 0.88106,0.27248 0.61393,0.0751 1.23445,-0.0428 1.83552,-0.18863 1.13607,-0.2757 2.24749,-0.65368 3.3144,-1.13155 1.43951,-0.64476 2.79414,-1.4694 4.07137,-2.39492 1.05286,-0.76293 2.0566,-1.5967 2.9681,-2.52392 0.77208,-0.7854 1.49369,-1.66695 1.82175,-2.7183 0.11333,-0.3632 0.17772,-0.74673 0.13744,-1.12506 -0.0403,-0.37833 -0.19168,-0.752 -0.46309,-1.01863 -0.24869,-0.24431 -0.58485,-0.38691 -0.92861,-0.44491 -0.34376,-0.058 -0.69647,-0.0362 -1.0415,0.0137 -0.79341,0.1147 -1.55801,0.37535 -2.30781,0.65898 -1.84641,0.69844 -3.63679,1.54487 -5.34867,2.52798 -2.04971,1.17712 -4.04304,2.60919 -5.26883,4.63017 z"
       id="path23"
       inkscape:path-effect="#path-effect23"
       inkscape:original-d="m 123.97721,124.69569 c -0.4424,0.83762 -0.98507,2.13625 -0.34593,2.82068 0.75724,0.81089 2.86712,1.80981 3.39138,0.7058 0.6329,-1.33278 2.98879,-1.83538 3.3144,-1.13155 0.68098,1.472 2.2598,0.34493 4.07137,-2.39492 0.33704,-0.50974 2.71494,-1.8643 2.9681,-2.52392 0.25317,-0.65962 2.21347,-2.32734 1.82175,-2.7183 -0.23382,-0.23336 0.0147,-2.05414 -0.32565,-2.14369 -0.34039,-0.0895 -1.61569,-0.52345 -1.97011,-0.43123 -0.70883,0.18445 -1.67247,0.4777 -2.30781,0.65898 -1.89632,0.54107 -7.25715,2.03151 -5.34867,2.52798 0.58937,0.15332 -4.17688,2.56275 -5.26883,4.63017 z"
       sodipodi:nodetypes="ssssssssssss"
       transform="translate(1.7030568,-16.179039)" />
    <path
       style="fill:#4a4a4a;fill-opacity:1;stroke:#000000;stroke-width:3.2;stroke-linecap:round;stroke-dasharray:none;stroke-opacity:1"
       d="m 176.68147,134.20318 c -2.02262,1.32802 -3.91553,2.84611 -5.72269,4.45509 -2.25639,2.00895 -4.41124,4.19914 -5.88338,6.83732 -0.46714,0.83715 -0.86697,1.73019 -0.99372,2.68044 -0.0461,0.34542 -0.0552,0.69935 0.0178,1.04009 0.073,0.34074 0.23256,0.66885 0.48723,0.90671 0.25024,0.23373 0.58033,0.36979 0.91753,0.4294 0.33719,0.0596 0.68314,0.047 1.02391,0.0134 0.8471,-0.0834 1.67934,-0.29491 2.47527,-0.59662 1.85234,-0.70216 3.48535,-1.87817 5.02311,-3.12696 1.8029,-1.46411 3.50956,-3.0476 5.09213,-4.74746 1.58339,-1.70073 3.06864,-3.56378 3.85105,-5.75181 0.22774,-0.63688 0.39491,-1.31214 0.32895,-1.98529 -0.033,-0.33657 -0.12523,-0.66923 -0.28844,-0.96542 -0.16321,-0.2962 -0.39891,-0.55498 -0.68939,-0.72816 -0.35518,-0.21176 -0.78851,-0.28886 -1.19494,-0.21261 -0.61137,0.0413 -1.21727,0.16294 -1.79723,0.36074 -0.94604,0.32266 -1.81166,0.84249 -2.64721,1.39109 z"
       id="path24"
       inkscape:path-effect="#path-effect24"
       inkscape:original-d="m 176.68147,134.20318 c -3.61341,1.66557 -4.10645,3.22518 -5.72269,4.45509 -2.78538,2.11958 -5.06543,4.7313 -5.88338,6.83732 -0.20934,0.53901 -0.82274,1.98936 -0.99372,2.68044 -0.17098,0.69108 0.074,1.46683 0.50505,1.9468 0.3379,0.37627 2.36716,0.84239 1.94144,0.44285 -0.40727,-0.38221 1.99467,-0.4392 2.47527,-0.59662 2.18743,-0.71649 3.14389,-1.73907 5.02311,-3.12696 1.87922,-1.38788 3.46726,-3.11713 5.09213,-4.74746 1.66219,-1.66779 3.37525,-3.49407 3.85105,-5.75181 0.25678,-1.21846 0.23096,-2.79771 -0.64888,-3.67887 -0.28586,-0.28629 -0.27355,-0.34913 -1.19494,-0.21261 0,0 -1.37002,0.0411 -1.79723,0.36074 -0.94691,0.70844 -2.64721,1.39109 -2.64721,1.39109 z"
       sodipodi:nodetypes="sssssssssaasss"
       transform="translate(1.7030568,-16.179039)" />
  </g>
</svg>
